<svg width="48" height="29" fill="none" xmlns="http://www.w3.org/2000/svg"><path fill-rule="evenodd" clip-rule="evenodd" d="M33.076.086C31.438-.007 29.802 0 28.165 0h-8.299c-1.67 0-3.305-.007-4.942.086-1.488.084-2.937.264-4.38.665-3.037.844-5.69 2.607-7.607 5.105A14.197 14.197 0 000 14.5a14.2 14.2 0 002.937 8.645c1.918 2.498 4.57 4.261 7.607 5.105 1.443.401 2.892.58 4.38.665 1.637.094 3.273.085 4.91.085l8.3.001c1.668 0 3.304.008 4.942-.086 1.487-.085 2.936-.264 4.38-.665 3.036-.844 5.688-2.607 7.606-5.105A14.195 14.195 0 0048 14.5a14.2 14.2 0 00-2.938-8.644c-1.917-2.498-4.57-4.26-7.607-5.105-1.443-.401-2.892-.58-4.38-.665z" fill="#2D2828"/></svg>